HIERARCHY
ROOT hip
{
	OFFSET	0.00  0.00  0.00 
	CHANNELS 6 Xposition Yposition Zposition Xrotation Zrotation Yrotation
	JOINT waist
	{
		OFFSET	0.000000 2.191865 -0.079388
		CHANNELS 3 Xrotation Zrotation Yrotation
		JOINT abdomen
		{
			OFFSET	0.000000 2.770984 0.119082
			CHANNELS 3 Xrotation Zrotation Yrotation
			JOINT chest
			{
				OFFSET	0.000000 2.879627 -0.290598
				CHANNELS 3 Xrotation Zrotation Yrotation
				JOINT neck
				{
					OFFSET	0.000000 12.342733 -1.613748
					CHANNELS 3 Xrotation Zrotation Yrotation
					JOINT head
					{
						OFFSET	0.000000 4.485597 1.807195
						CHANNELS 3 Xrotation Zrotation Yrotation
						End Site
						{
							OFFSET 0.000000 7.191734 2.024398
						}
					}
				}
				JOINT lCollar
				{
					OFFSET	1.858774 10.237258 -1.915852
					CHANNELS 3 Zrotation Yrotation Xrotation
					JOINT lShldr
					{
						OFFSET	6.103279 0.000102 -0.038601
						CHANNELS 3 Zrotation Yrotation Xrotation
						JOINT lForeArm
						{
							OFFSET	10.574100 -0.365985 -0.655940
							CHANNELS 3 Zrotation Yrotation Xrotation
							JOINT lHand
							{
								OFFSET	13.213392 -0.641131 0.276866
								CHANNELS 3 Zrotation Yrotation Xrotation
								JOINT lThumb1
								{
									OFFSET	1.920964 -1.225712 1.722395
									CHANNELS 3 Zrotation Yrotation Xrotation
									JOINT lThumb2
									{
										OFFSET	0.248544 -0.143036 0.768265
										CHANNELS 3 Zrotation Yrotation Xrotation
										JOINT lThumb3
										{
											OFFSET	0.628484 -0.225174 0.508305
											CHANNELS 3 Zrotation Yrotation Xrotation
											End Site
											{
												OFFSET 0.831712 -0.207978 0.609962
											}
										}
									}
								}
								JOINT lIndex1
								{
									OFFSET	5.093442 -0.710319 1.829884
									CHANNELS 3 Zrotation Yrotation Xrotation
									JOINT lIndex2
									{
										OFFSET	0.889470 -0.051998 0.127073
										CHANNELS 3 Zrotation Yrotation Xrotation
										JOINT lIndex3
										{
											OFFSET	0.889570 -0.155981 0.127073
											CHANNELS 3 Zrotation Yrotation Xrotation
											End Site
											{
												OFFSET 0.797115 -0.294470 0.076252
											}
										}
									}
								}
								JOINT lMid1
								{
									OFFSET	5.154641 -0.519844 0.864111
									CHANNELS 3 Zrotation Yrotation Xrotation
									JOINT lMid2
									{
										OFFSET	0.928821 -0.051992 0.050831
										CHANNELS 3 Zrotation Yrotation Xrotation
										JOINT lMid3
										{
											OFFSET	0.984253 -0.311865 0.050831
											CHANNELS 3 Zrotation Yrotation Xrotation
											End Site
											{
												OFFSET 0.779717 -0.606438 -0.050831
											}
										}
									}
								}
								JOINT lRing1
								{
									OFFSET	4.924408 -0.754930 -0.235503
									CHANNELS 3 Zrotation Yrotation Xrotation
									JOINT lRing2
									{
										OFFSET	0.981624 -0.036924 -0.108278
										CHANNELS 3 Zrotation Yrotation Xrotation
										JOINT lRing3
										{
											OFFSET	0.805613 -0.205247 -0.041717
											CHANNELS 3 Zrotation Yrotation Xrotation
											End Site
											{
												OFFSET 0.667431 -0.470481 -0.035991
											}
										}
									}
								}
								JOINT lPinky1
								{
									OFFSET	4.535460 -0.816635 -1.006206
									CHANNELS 3 Zrotation Yrotation Xrotation
									JOINT lPinky2
									{
										OFFSET	0.690596 -0.064334 -0.168800
										CHANNELS 3 Zrotation Yrotation Xrotation
										JOINT lPinky3
										{
											OFFSET	0.598039 -0.111176 -0.071973
											CHANNELS 3 Zrotation Yrotation Xrotation
											End Site
											{
												OFFSET 0.422025 -0.290925 -0.035981
											}
										}
									}
								}
							}
						}
					}
				}
				JOINT rCollar
				{
					OFFSET	-1.858774 10.237258 -1.915852
					CHANNELS 3 Zrotation Yrotation Xrotation
					JOINT rShldr
					{
						OFFSET	-6.103279 0.000102 -0.038601
						CHANNELS 3 Zrotation Yrotation Xrotation
						JOINT rForeArm
						{
							OFFSET	-10.574100 -0.365985 -0.655940
							CHANNELS 3 Zrotation Yrotation Xrotation
							JOINT rHand
							{
								OFFSET	-13.213392 -0.641131 0.276866
								CHANNELS 3 Zrotation Yrotation Xrotation
								JOINT rIndex1
								{
									OFFSET	-5.093442 -0.710319 1.829884
									CHANNELS 3 Zrotation Yrotation Xrotation
									JOINT rIndex2
									{
										OFFSET	-0.889470 -0.051998 0.127073
										CHANNELS 3 Zrotation Yrotation Xrotation
										JOINT rIndex3
										{
											OFFSET	-0.889570 -0.155981 0.127073
											CHANNELS 3 Zrotation Yrotation Xrotation
											End Site
											{
												OFFSET -0.797115 -0.294470 0.076252
											}
										}
									}
								}
								JOINT rThumb1
								{
									OFFSET	-1.920964 -1.225712 1.722395
									CHANNELS 3 Zrotation Yrotation Xrotation
									JOINT rThumb2
									{
										OFFSET	-0.248544 -0.143036 0.768265
										CHANNELS 3 Zrotation Yrotation Xrotation
										JOINT rThumb3
										{
											OFFSET	-0.628484 -0.225174 0.508305
											CHANNELS 3 Zrotation Yrotation Xrotation
											End Site
											{
												OFFSET -0.831712 -0.207978 0.609962
											}
										}
									}
								}
								JOINT rMid1
								{
									OFFSET	-5.154641 -0.519844 0.864111
									CHANNELS 3 Zrotation Yrotation Xrotation
									JOINT rMid2
									{
										OFFSET	-0.928821 -0.051992 0.050831
										CHANNELS 3 Zrotation Yrotation Xrotation
										JOINT rMid3
										{
											OFFSET	-0.984253 -0.311865 0.050831
											CHANNELS 3 Zrotation Yrotation Xrotation
											End Site
											{
												OFFSET -0.779717 -0.606438 -0.050831
											}
										}
									}
								}
								JOINT rRing1
								{
									OFFSET	-4.924408 -0.754930 -0.235503
									CHANNELS 3 Zrotation Yrotation Xrotation
									JOINT rRing2
									{
										OFFSET	-0.981624 -0.036924 -0.108278
										CHANNELS 3 Zrotation Yrotation Xrotation
										JOINT rRing3
										{
											OFFSET	-0.805613 -0.205247 -0.041717
											CHANNELS 3 Zrotation Yrotation Xrotation
											End Site
											{
												OFFSET -0.667431 -0.470481 -0.035991
											}
										}
									}
								}
								JOINT rPinky1
								{
									OFFSET	-4.535460 -0.816635 -1.006206
									CHANNELS 3 Zrotation Yrotation Xrotation
									JOINT rPinky2
									{
										OFFSET	-0.690596 -0.064334 -0.168800
										CHANNELS 3 Zrotation Yrotation Xrotation
										JOINT rPinky3
										{
											OFFSET	-0.598039 -0.111176 -0.071973
											CHANNELS 3 Zrotation Yrotation Xrotation
											End Site
											{
												OFFSET -0.422025 -0.290925 -0.035981
											}
										}
									}
								}
							}
						}
					}
				}
			}
		}
	}
	JOINT lThigh
	{
		OFFSET	5.761895 -0.730553 0.000101
		CHANNELS 3 Xrotation Zrotation Yrotation
		JOINT lShin
		{
			OFFSET	-1.171020 -18.459274 1.627449
			CHANNELS 3 Xrotation Zrotation Yrotation
			JOINT lFoot
			{
				OFFSET	-0.883715 -16.872776 -3.357785
				CHANNELS 3 Xrotation Zrotation Yrotation
				JOINT lToe
				{
					OFFSET	1.287613 -2.778491 2.836049
					CHANNELS 3 Xrotation Yrotation Zrotation
					End Site
					{
						OFFSET 1.362641 -0.436631 3.828194
					}
				}
			}
		}
	}
	JOINT rThigh
	{
		OFFSET	-5.761895 -0.730553 0.000101
		CHANNELS 3 Xrotation Zrotation Yrotation
		JOINT rShin
		{
			OFFSET	1.171020 -18.459274 1.627449
			CHANNELS 3 Xrotation Zrotation Yrotation
			JOINT rFoot
			{
				OFFSET	0.883715 -16.872776 -3.357785
				CHANNELS 3 Xrotation Zrotation Yrotation
				JOINT rToe
				{
					OFFSET	-1.287613 -2.778491 2.836049
					CHANNELS 3 Xrotation Yrotation Zrotation
					End Site
					{
						OFFSET -1.362641 -0.436631 3.828194
					}
				}
			}
		}
	}
}
MOTION
Frames:     4
Frame Time: 0.033333
-0.329498 37.536953 -1.795875 20.853294 0.605569 17.005280 -0.009766 0.000000 0.000000 9.588467 -2.736478 8.274897 -13.344815 6.150365 -6.141050 2.988278 0.000000 0.000000 -7.515547 -8.560364 -14.452177 6.389482 -14.988256 -9.163978 -70.036232 -11.798609 11.855871 1.330668 -50.580593 -12.511976 -8.213912 -5.122349 -0.276193 16.787247 12.659203 39.062611 5.526437 29.268394 9.918445 1.263061 13.891337 2.973230 -31.787315 0.924486 4.319869 -56.952110 3.077218 7.075561 -75.979698 2.992849 5.678606 -39.699238 -7.025636 1.590718 -57.536808 0.927851 2.574478 -76.234497 -1.273617 -3.640374 -38.723091 -11.176205 -3.404331 -57.531403 -1.035633 -2.602874 -76.266884 -1.152166 -3.072029 -35.292137 -16.905069 -11.817162 -57.142742 -2.591130 -5.988226 -76.127655 -1.859994 -4.867922 -6.351890 -8.456441 3.210646 70.220329 -3.244982 7.255164 -0.471848 34.585575 9.960190 8.014009 -8.248208 1.408253 41.254158 -1.725108 5.427964 64.803276 -4.015355 7.696147 81.492836 -3.475539 5.858987 -15.846500 -14.828119 31.597164 -2.277228 -16.117624 4.879073 -6.506135 -39.188354 10.642632 41.903328 6.922441 1.679641 65.490799 -1.259043 2.811578 81.769859 1.520215 -3.791123 40.900642 11.296201 -3.561085 65.485382 1.347207 -2.842825 81.805428 1.362507 -3.196016 37.278332 17.170126 -12.245070 65.029221 3.353450 -6.523013 81.653137 2.204035 -5.062697 -22.045322 2.518575 10.709579 29.331303 0.126887 -1.397227 -20.165747 -0.334928 -19.057499 1.463940 0.012069 -0.527438 -44.945156 -15.675167 -17.157579 38.220055 -0.498782 1.606607 -13.534888 3.935300 13.457623 3.866792 -0.039379 1.359038 
-0.723843 37.638432 -1.795875 20.867006 1.814899 14.301628 -0.009766 0.000000 0.000000 9.640279 -3.971207 6.514890 -14.092868 5.222353 -5.007583 2.988278 0.000000 0.000000 -7.413254 -8.261536 -13.085136 6.383828 -13.953829 -8.232921 -70.037819 -11.136894 11.315963 1.200431 -48.658436 -10.734347 -8.214703 -4.444045 -0.191314 16.787247 12.659203 39.062611 5.526437 29.268394 9.918445 1.263061 13.891337 2.973230 -31.787315 0.924486 4.319869 -56.952110 3.077218 7.075561 -75.979698 2.992849 5.678606 -39.699238 -7.025636 1.590718 -57.536808 0.927851 2.574478 -76.234497 -1.273617 -3.640374 -38.723091 -11.176205 -3.404331 -57.531403 -1.035633 -2.602874 -76.266884 -1.152166 -3.072029 -35.292137 -16.905069 -11.817162 -57.142742 -2.591130 -5.988226 -76.127655 -1.859994 -4.867922 -6.356710 -6.503042 2.273957 70.209358 -1.997020 7.923512 -0.576690 36.985512 8.184566 8.040580 -7.250500 1.279348 41.254158 -1.725108 5.427964 64.803276 -4.015355 7.696147 81.492836 -3.475539 5.858987 -15.846500 -14.828119 31.597164 -2.277228 -16.117624 4.879073 -6.506135 -39.188354 10.642632 41.903328 6.922441 1.679641 65.490799 -1.259043 2.811578 81.769859 1.520215 -3.791123 40.900642 11.296201 -3.561085 65.485382 1.347207 -2.842825 81.805428 1.362507 -3.196016 37.278332 17.170126 -12.245070 65.029221 3.353450 -6.523013 81.653137 2.204035 -5.062697 -24.647821 2.420538 10.084209 31.900898 0.173660 -1.615053 -19.235846 -1.661690 -18.414316 1.012827 0.006752 -0.367847 -44.000805 -13.198936 -14.160933 37.251312 -0.457115 1.641041 -14.026016 3.405412 13.229234 5.588524 -0.022837 1.968495 
-1.129930 37.746075 -1.795865 20.880121 3.089089 11.277715 -0.009766 0.000000 0.000000 9.693804 -5.260850 4.574202 -14.929246 4.151906 -3.741417 2.988278 0.000000 0.000000 -7.071901 -7.697765 -11.722318 6.376728 -12.577668 -7.048100 -70.042702 -10.250697 10.728211 1.072559 -46.559383 -8.528927 -8.214049 -3.455656 -0.067631 16.787247 12.659203 39.062611 5.526437 29.268394 9.918445 1.263061 13.891337 2.973230 -31.787315 0.924486 4.319869 -56.952110 3.077218 7.075561 -75.979698 2.992849 5.678606 -39.699238 -7.025636 1.590718 -57.536808 0.927851 2.574478 -76.234497 -1.273617 -3.640374 -38.723091 -11.176205 -3.404331 -57.531403 -1.035633 -2.602874 -76.266884 -1.152166 -3.072029 -35.292137 -16.905069 -11.817162 -57.142742 -2.591130 -5.988226 -76.127655 -1.859994 -4.867922 -6.361669 -4.334885 1.289227 70.196999 -0.602969 8.660837 -0.702209 39.616444 6.330346 8.068184 -6.107421 1.132831 41.254158 -1.725108 5.427964 64.803276 -4.015355 7.696147 81.492836 -3.475539 5.858987 -15.846500 -14.828119 31.597164 -2.277228 -16.117624 4.879073 -6.506135 -39.188354 10.642632 41.903328 6.922441 1.679641 65.490799 -1.259043 2.811578 81.769859 1.520215 -3.791123 40.900642 11.296201 -3.561085 65.485382 1.347207 -2.842825 81.805428 1.362507 -3.196016 37.278332 17.170126 -12.245070 65.029221 3.353450 -6.523013 81.653137 2.204035 -5.062697 -28.987335 2.187532 9.713413 35.393513 0.266265 -1.735559 -16.151993 -3.067638 -16.988323 1.058858 0.007349 -0.384130 -42.847080 -10.868203 -11.427435 36.245682 -0.413238 1.633145 -14.486955 2.831166 13.054456 7.834622 0.026265 2.762467 
-1.499001 37.845043 -1.795865 20.891455 4.319388 8.008912 -0.009766 0.000000 0.000000 9.743006 -6.441579 2.532515 -15.727982 2.922543 -2.376663 2.988278 0.000000 0.000000 -6.362973 -6.572128 -10.131441 6.368709 -10.908466 -5.689696 -70.050331 -9.188735 10.110430 0.949643 -44.356270 -6.026085 -8.210253 -2.225022 0.085944 16.787247 12.659203 39.062611 5.526437 29.268394 9.918445 1.263061 13.891337 2.973230 -31.787315 0.924486 4.319869 -56.952110 3.077218 7.075561 -75.979698 2.992849 5.678606 -39.699238 -7.025636 1.590718 -57.536808 0.927851 2.574478 -76.234497 -1.273617 -3.640374 -38.723091 -11.176205 -3.404331 -57.531403 -1.035633 -2.602874 -76.266884 -1.152166 -3.072029 -35.301006 -16.906267 -11.818995 -57.142742 -2.591130 -5.988226 -76.127655 -1.859994 -4.867922 -6.366748 -2.010581 0.264317 70.183449 0.888433 9.427869 -0.848795 42.368996 4.339652 8.094755 -4.867401 0.975667 41.254158 -1.725108 5.427964 64.803276 -4.015355 7.696147 81.492836 -3.475539 5.858987 -15.846500 -14.828119 31.597164 -2.277228 -16.117624 4.879073 -6.506135 -39.188354 10.642632 41.903328 6.922441 1.679641 65.490799 -1.259043 2.811578 81.769859 1.520215 -3.791123 40.900642 11.296201 -3.561085 65.485382 1.347207 -2.842825 81.805428 1.362507 -3.196016 37.278332 17.170126 -12.245070 65.029221 3.353450 -6.523013 81.653137 2.204035 -5.062697 -34.227215 2.236869 9.944958 38.787067 0.359870 -1.875136 -9.838989 -1.554602 -15.148261 1.445528 0.011876 -0.520925 -41.534973 -8.880461 -9.382835 35.065071 -0.379110 1.599697 -14.428280 2.060368 12.985268 10.291404 0.115598 3.628341 
